<svg xmlns="http://www.w3.org/2000/svg" version="1.1" xmlns:xlink="http://www.w3.org/1999/xlink" xmlns:svgjs="http://svgjs.dev/svgjs" width="1440" height="560" preserveAspectRatio="none" viewBox="0 0 1440 560"><g mask="url(&quot;#SvgjsMask1000&quot;)" fill="none"><rect width="1440" height="560" x="0" y="0" fill="#0e2a47"></rect><path d="M0,450.115C103.181,451.93,204.205,501.952,302.61,470.871C415.162,435.322,537.458,375.127,582.651,266.088C627.765,157.239,560.035,37.648,529.312,-76.104C502.236,-176.352,491.659,-289.821,413.914,-358.658C338.445,-425.48,225.684,-412.041,126.953,-432.361C37.425,-450.786,-47.567,-479.329,-138.707,-472.392C-247.558,-464.107,-369.065,-463.523,-448.428,-388.565C-529.194,-312.282,-543.316,-190.255,-554.454,-79.719C-565.236,27.289,-557.548,136.408,-511.098,233.41C-465.138,329.389,-393.817,418.801,-295.844,460.342C-203.121,499.656,-100.697,448.343,0,450.115" fill="#0b2239"></path><path d="M1440 841.538C1493.4279999999999 831.0509999999999 1543.039 817.8140000000001 1594.766 800.821 1665.19 777.685 1756.354 784.688 1798.554 723.746 1840.215 663.583 1823.531 576.891 1797.078 508.65999999999997 1773.0520000000001 446.688 1706.825 416.634 1660.871 368.61400000000003 1617.784 323.59000000000003 1594.7069999999999 254.247 1535.373 235.19 1475.831 216.067 1412.986 247.053 1354.954 270.362 1301.508 291.829 1249.97 319.193 1214.078 364.238 1179.026 408.228 1177.348 466.96500000000003 1156.6309999999999 519.258 1128.146 591.159 1051.51 653.987 1069.49 729.206 1087.032 802.591 1168.348 848.453 1240.554 870.345 1306.166 890.2370000000001 1372.723 854.7429999999999 1440 841.538" fill="#113255"></path></g><defs><mask id="SvgjsMask1000"><rect width="1440" height="560" fill="#ffffff"></rect></mask></defs></svg>